<svg width="396" height="126" viewBox="0 0 396 126" fill="none" xmlns="http://www.w3.org/2000/svg">
<g clip-path="url(#clip0_1089_10861)">
<g clip-path="url(#clip1_1089_10861)">
<path d="M50.2953 79.3477H34.492L32.2929 86.8735H18.0923L35.0262 41.3011H50.1773L67.1112 86.8735H52.5545L50.2953 79.3477ZM47.3839 69.4763L42.3936 53.1008L37.4568 69.4763H47.3839Z" fill="#2B2F83"/>
<path d="M61.5845 41.2402H76.1412L86.242 74.05L96.2225 41.2402H110.363L93.6695 86.8126H78.5785L61.5845 41.2402Z" fill="#2B2F83"/>
<path d="M117.613 86.8735V41.2402H140.783C144.109 41.1066 147.436 41.4922 150.646 42.3837C152.888 43.0861 154.819 44.5542 156.113 46.5379C157.387 48.6219 158.101 51.0072 158.184 53.4571C158.268 55.9071 157.718 58.3367 156.589 60.5048C155.502 62.3287 153.993 63.8573 152.193 64.959C150.671 65.8117 149.027 66.4203 147.321 66.7632C148.602 67.1467 149.822 67.7141 150.944 68.4479C151.789 69.1382 152.53 69.9496 153.143 70.8565C153.871 71.7448 154.527 72.6913 155.104 73.6869L161.817 86.8712H146.132L138.705 72.9652C138.109 71.6459 137.261 70.4593 136.209 69.474C135.222 68.7591 134.036 68.3801 132.822 68.3915H131.573V86.8735H117.613ZM131.575 59.7222H137.458C138.702 59.64 139.935 59.4384 141.142 59.1201C142.045 58.9379 142.849 58.4228 143.399 57.6744C143.989 56.9222 144.304 55.9856 144.289 55.0245C144.321 54.3951 144.215 53.7663 143.979 53.1833C143.743 52.6003 143.382 52.0776 142.922 51.6529C141.375 50.6917 139.56 50.2689 137.754 50.4485H131.635V59.72L131.575 59.7222Z" fill="#2B2F83"/>
<path d="M234.36 41.2402H252.661L259.732 68.9937L266.681 41.2402H284.982V86.8126H273.575V52.0656L264.78 86.8622H254.442L245.708 52.0656V86.8735H234.3V41.2402H234.36Z" fill="#2B2F83"/>
<path d="M293.834 41.2402H331.087V50.992H307.739V58.2089H329.365V67.4804H307.739V76.4496H331.742V86.8036H293.774V41.2402H293.834Z" fill="#2B2F83"/>
<path d="M339.463 41.2403H360.138C363.506 41.0988 366.865 41.6727 370.001 42.9249C372.43 43.9995 374.568 45.6511 376.233 47.74C377.919 49.8836 379.133 52.3671 379.794 55.0245C380.543 57.9134 380.922 60.8875 380.923 63.8742C381.099 67.7201 380.534 71.564 379.26 75.1912C378.267 77.7649 376.702 80.0722 374.686 81.9344C372.924 83.6254 370.787 84.8628 368.454 85.5429C365.749 86.3364 362.952 86.7618 360.136 86.8081H339.463V41.2403ZM353.365 51.5942V76.5173H356.751C358.856 76.6722 360.968 76.343 362.93 75.5543C364.261 74.7841 365.29 73.5716 365.841 72.1217C366.692 69.584 367.055 66.9045 366.909 64.2283C366.909 59.417 366.137 56.1093 364.592 54.3051C363.568 53.3271 362.348 52.5842 361.016 52.1269C359.683 51.6696 358.268 51.5087 356.869 51.6551H353.363L353.365 51.5942Z" fill="#2B2F83"/>
<path d="M195.146 30.2232L196.751 35.16H201.87L197.71 38.2295L199.315 43.2272L195.146 40.1464L190.988 43.2159L192.593 38.2182L188.433 35.16H193.553L195.146 30.2232Z" fill="#2B2F83"/>
<path d="M180.291 35.5209L181.896 40.4577H187.015L182.855 43.5271L184.46 48.4639L180.3 45.3945L176.14 48.4639L177.745 43.5271L173.578 40.4577H178.698L180.291 35.5209Z" fill="#2B2F83"/>
<path d="M170.489 48.4639L172.094 53.4616H177.262L173.033 56.4724L174.638 61.4701L170.489 58.3871L166.331 61.4565L167.936 56.4588L163.776 53.4616H168.895L170.489 48.4639Z" fill="#2B2F83"/>
<path d="M170.489 64.2373L168.884 69.1741H163.765L167.925 72.2435L166.32 77.2412L170.478 74.1718L174.638 77.2412L173.033 72.2435L177.262 69.1741H172.094L170.489 64.2373Z" fill="#2B2F83"/>
<path d="M180.291 77.2412L178.686 82.178H173.567L177.727 85.2474L176.122 90.1842L180.282 87.1148L184.442 90.1842L182.837 85.2474L186.997 82.178H181.878L180.291 77.2412Z" fill="#2B2F83"/>
<path d="M195.146 82.778L196.751 87.7757H201.87L197.71 90.8451L199.315 95.7819L195.155 92.7124L190.997 95.7819L192.602 90.8451L188.442 87.7757H193.561L195.146 82.778Z" fill="#2B2F83"/>
<path d="M209.999 35.5209L208.394 40.4577H203.275L207.435 43.5271L205.83 48.4639L209.99 45.3945L214.15 48.4639L212.545 43.5271L216.705 40.4577H211.586L209.999 35.5209Z" fill="#2B2F83"/>
<path d="M219.804 48.4639L218.199 53.4616H213.08L217.24 56.4724L215.635 61.4701L219.795 58.4006L223.955 61.4701L222.35 56.4724L226.51 53.4616H221.391L219.804 48.4639Z" fill="#2B2F83"/>
<path d="M219.804 64.2373L221.408 69.1741H226.528L222.368 72.2435L223.972 77.2412L219.812 74.1718L215.652 77.2412L217.257 72.2435L213.097 69.1741H218.216L219.804 64.2373Z" fill="#2B2F83"/>
<path d="M209.999 77.2412L211.604 82.178H216.723L212.563 85.2474L214.168 90.1842L210.008 87.1148L205.848 90.1842L207.453 85.2474L203.293 82.178H208.412L209.999 77.2412Z" fill="#2B2F83"/>
<path d="M44.1768 103.907H351.825V107.759H44.1768V103.907Z" fill="#2B2F83"/>
</g>
</g>
<defs>
<clipPath id="clip0_1089_10861">
<rect width="396" height="126" fill="white"/>
</clipPath>
<clipPath id="clip1_1089_10861">
<rect width="396" height="126" fill="white"/>
</clipPath>
</defs>
</svg>
